<svg width="20" height="20" viewBox="0 0 20 20" fill="none" xmlns="http://www.w3.org/2000/svg">
<g clip-path="url(#clip0_15_135)">
<path d="M14.9332 18.1533C14.691 17.88 14.4035 17.6507 14.0925 17.5902C14.0925 17.5883 14.0928 17.5863 14.0928 17.5843C14.0928 17.1021 13.7019 16.7112 13.2196 16.7112H6.8023C6.32007 16.7112 5.92913 17.1021 5.92913 17.5843C5.92913 17.5863 5.9294 17.5882 5.92944 17.5902C5.61843 17.6507 5.33093 17.88 5.0887 18.1533C4.68886 18.6044 5.01015 19.3165 5.61296 19.3165H14.409C15.0117 19.3165 15.333 18.6044 14.9332 18.1533Z" fill="#E2A042"/>
<path d="M19.2807 3.36146C18.8155 2.80553 18.1328 2.48666 17.4078 2.48666H16.4651V1.35107H3.55651V2.48666H2.59214C1.86718 2.48666 1.18456 2.80549 0.719288 3.36146C0.254014 3.91744 0.0603817 4.64553 0.188155 5.35916L0.942882 9.57537C1.15155 10.7411 2.16257 11.5872 3.34687 11.5872H6.35687C6.44257 11.5872 6.52761 11.5824 6.61187 11.5737C6.99737 12.0119 7.40917 12.443 7.84132 12.8752C8.15546 13.1893 8.43741 13.4483 8.69862 13.6525C8.62601 14.0111 8.54434 14.3678 8.4537 14.7223L8.34034 15.1523C8.29956 15.2942 8.26437 15.4338 8.22136 15.5688C8.1764 15.7039 8.11503 15.8345 8.04683 15.9583C7.97804 16.0822 7.90585 16.1992 7.84694 16.3073C7.79256 16.4028 7.74367 16.5013 7.7005 16.6023C7.68331 16.6462 7.66511 16.6873 7.65316 16.7253C7.64163 16.7633 7.63355 16.7982 7.63062 16.8297C7.61601 16.9558 7.66452 17.0278 7.66452 17.0278C7.90733 17.389 8.29976 17.6974 8.8164 17.8944C10.1059 18.3859 11.681 17.9979 12.3344 17.0278C12.3344 17.0278 12.3829 16.9558 12.3683 16.8297C12.3653 16.7982 12.3573 16.7633 12.3457 16.7253C12.3338 16.6873 12.3156 16.6462 12.2984 16.6023C12.2552 16.5013 12.2063 16.4028 12.1519 16.3073C12.093 16.1992 12.0209 16.0822 11.9521 15.9583C11.8839 15.8345 11.8225 15.7039 11.7775 15.5688C11.7345 15.4338 11.6994 15.2942 11.6585 15.1523L11.5452 14.7223C11.4558 14.3728 11.3752 14.0212 11.3033 13.6677C11.57 13.4612 11.8583 13.1972 12.1803 12.8752C12.6119 12.4435 13.0232 12.013 13.4083 11.5753C13.4863 11.583 13.5647 11.587 13.6431 11.5872H16.6531C17.8374 11.5872 18.8484 10.7412 19.0571 9.57533L19.8118 5.35916C19.9396 4.64557 19.746 3.9174 19.2807 3.36146ZM3.34687 9.92322C3.16421 9.92339 2.98733 9.85923 2.84726 9.742C2.70718 9.62477 2.61287 9.46196 2.58085 9.28213L1.82608 5.06596C1.77038 4.75463 1.90819 4.5335 1.99534 4.42939C2.08249 4.32529 2.27585 4.15064 2.59214 4.15064H3.55749C3.58245 6.50033 4.25593 8.31326 5.32995 9.92322H3.34687ZM18.1739 5.06596L17.4192 9.28213C17.3872 9.46195 17.2928 9.62476 17.1528 9.74199C17.0127 9.85922 16.8358 9.9234 16.6532 9.92326H14.6917C15.7657 8.3133 16.4392 6.50037 16.4642 4.15068H17.4079C17.7241 4.15068 17.9175 4.32533 18.0047 4.42943C18.0918 4.53354 18.2296 4.75463 18.1739 5.06596Z" fill="#FFB636"/>
<path d="M5.21045 19.1908C5.73674 19.7171 7.78123 19.9218 10.0109 19.9218C12.2406 19.9218 14.5177 19.4976 14.8756 19.1397C15.2335 18.7818 12.8809 18.7722 12.8809 18.7722L5.21045 19.1908Z" fill="#E2A042"/>
<path d="M9.99997 2.45063C13.5611 2.45063 16.4479 1.95844 16.4479 1.35129C16.4479 0.744143 13.5611 0.251953 9.99997 0.251953C6.43886 0.251953 3.552 0.744143 3.552 1.35129C3.552 1.95844 6.43886 2.45063 9.99997 2.45063Z" fill="#FFD469"/>
<path d="M14.3167 7.47838C14.2399 7.47838 14.1619 7.46459 14.086 7.43545C13.7536 7.30799 13.5876 6.93521 13.7151 6.60287C14.1923 5.35853 14.1474 4.63853 14.1 3.87631C14.0778 3.52103 14.3479 3.21506 14.7031 3.19291C15.0591 3.17088 15.3644 3.44088 15.3865 3.79611C15.4487 4.79455 15.4538 5.66916 14.9186 7.06447C14.8202 7.32092 14.5758 7.47838 14.3167 7.47838Z" fill="#FFD469"/>
</g>
<defs>
<clipPath id="clip0_15_135">
<rect width="20" height="20" fill="white"/>
</clipPath>
</defs>
</svg>
